<svg xmlns="http://www.w3.org/2000/svg" width="64" height="64" viewBox="5 4 54 54" fill="none">
  <defs>
    <linearGradient id="g" x1="10" y1="2" x2="54" y2="60" gradientUnits="userSpaceOnUse">
      <stop offset="0" stop-color="#b15cff"/>
      <stop offset="1" stop-color="#7e14ff"/>
    </linearGradient>
  </defs>
  <!-- speech bubble (the "type a phrase" mechanic) with tail bottom-left -->
  <path fill="url(#g)" d="M18 4h28a12 12 0 0 1 12 12v20a12 12 0 0 1-12 12H24l-12 12 4-12h-0a12 12 0 0 1-12-12V16A12 12 0 0 1 18 4z"/>
  <!-- the actual game knight (Cburnett wN) -->
  <g transform="translate(9,1) scale(1.05)" stroke="#000" stroke-width="1.4" stroke-linecap="round" stroke-linejoin="round">
    <path fill="#fff" d="M 22,10 C 32.5,11 38.5,18 38,39 L 15,39 C 15,30 25,32.5 23,18"/>
    <path fill="#fff" d="M 24,18 C 24.38,20.91 18.45,25.37 16,27 C 13,29 13.18,31.34 11,31 C 9.958,30.06 12.41,27.96 11,28 C 10,28 11.19,29.23 10,30 C 9,30 5.997,31 6,26 C 6,24 12,14 12,14 C 12,14 13.89,12.1 14,10.5 C 13.27,9.506 13.5,8.5 13.5,7.5 C 14.5,6.5 16.5,10 16.5,10 L 18.5,10 C 18.5,10 19.28,8.008 21,7 C 22,7 22,10 22,10"/>
    <path fill="#000" stroke="#000" d="M 9.5 25.5 A 0.5 0.5 0 1 1 8.5,25.5 A 0.5 0.5 0 1 1 9.5 25.5 z"/>
    <path fill="#000" stroke="#000" transform="matrix(0.866,0.5,-0.5,0.866,9.693,-5.173)" d="M 15 15.5 A 0.5 1.5 0 1 1  14,15.5 A 0.5 1.5 0 1 1  15 15.5 z"/>
  </g>
</svg>
